<svg xmlns="http://www.w3.org/2000/svg" width="116" height="173" fill="none"><path fill="#98EFE4" fill-rule="evenodd" stroke="#000" stroke-width="1.659" d="M3.23 96.642C6.706 84.59 22.795 34.136 26.663 25.447 31.428 14.795 39.221 2.236 57.72 2.573c18.5-.336 26.348 12.221 31.057 22.873 3.924 8.689 19.957 59.142 23.489 71.195 22.368 76.017-131.403 76.017-109.036 0Z" clip-rule="evenodd"/><path fill="#E9CCFF" fill-rule="evenodd" stroke="#000" stroke-width="1.659" d="M89.282 24.998c-.168-.448-.337-.785-.505-1.121C84.068 13.226 76.22.724 57.72 1.005c-18.5-.28-26.292 12.22-31.057 22.872-.112.336-.28.673-.448 1.121 7.456-4.26 17.49-7.175 31.505-7.063 14.015-.112 24.05 2.803 31.562 7.063Z" clip-rule="evenodd"/><path fill="#E9CCFF" fill-rule="evenodd" stroke="#000" stroke-width="1.659" d="M57.944 8.236h-.672c-12.726-.168-24.554 2.074-30.328 8.802-2.915 3.42-4.373 7.792-5.774 11.884-.505 1.57.055 4.26 1.681 5.326 8.577-4.877 18.836-8.521 34.87-8.353h.224V8.236Z" clip-rule="evenodd"/><path fill="#E9CCFF" fill-rule="evenodd" stroke="#000" stroke-width="1.659" d="M57.775 8.236h.673c12.726-.168 24.554 2.074 30.328 8.802 2.915 3.42 4.429 7.792 5.774 11.884.561 1.57-.056 4.26-1.681 5.326-8.578-4.877-18.836-8.521-34.87-8.353h-.224V8.236Z" clip-rule="evenodd"/><path fill="#000" fill-rule="evenodd" stroke="#000" stroke-width="1.659" d="M29.521 34.92h23.153c2.018 0 3.7 1.57 3.868 3.588.224.28.56.673 1.57.673.785.056 1.233-.336 1.513-.672.113-2.019 1.85-3.588 3.868-3.588h23.153c2.13 0 3.195 1.794 3.868 3.868l2.467 7.624s-2.86 4.877-3.476 5.55c-.672.84-1.738 1.401-2.859 1.233L63.493 49.89c-2.074-.337-3.868-1.738-3.868-3.869v-2.41h-3.083v2.41c0 2.13-1.738 3.532-3.868 3.868l-23.152 3.308c-1.29.168-2.411-.505-3.084-1.514-.504-.672-3.7-5.27-3.7-5.27l2.915-7.623c.785-2.018 1.738-3.868 3.869-3.868Z" clip-rule="evenodd"/><path fill="#E9CCFF" fill-rule="evenodd" stroke="#000" stroke-width="1.659" d="M24.59 31.277h23.209c2.13 0 3.812 1.737 3.812 3.868V45.74a3.816 3.816 0 0 1-3.812 3.812H28.626c-.336 0-5.438-2.915-5.886-3.14-.448-.224-.112-7.119-.505-7.231-.953-.28-2.746 6.84-2.634 5.998l1.177-10.034c.224-2.075 1.682-3.868 3.812-3.868ZM91.132 31.277H67.923c-2.13 0-3.812 1.737-3.812 3.868V45.74a3.816 3.816 0 0 0 3.812 3.812h19.621c.337 0 4.99-2.915 5.438-3.14.448-.224.112-7.119.505-7.231 1.009-.28 2.522 6.84 2.466 5.998L95 35.145c-.224-2.075-1.738-3.868-3.868-3.868Z" clip-rule="evenodd"/><path fill="#E9CCFF" fill-rule="evenodd" stroke="#000" stroke-width="1.659" d="M29.522 31.277h23.153c2.018 0 3.7 1.625 3.868 3.587.224.337.56.73 1.57.73.785 0 1.233-.337 1.513-.674.113-2.018 1.85-3.643 3.869-3.643h23.152a3.876 3.876 0 0 1 3.868 3.868V45.74c0 2.074-1.738 3.812-3.868 3.812H63.494c-2.13 0-3.868-1.738-3.868-3.812v-2.41h-3.083v2.41c0 2.074-1.738 3.812-3.868 3.812H29.522c-2.13 0-3.868-1.738-3.868-3.812V35.145a3.876 3.876 0 0 1 3.868-3.868Z" clip-rule="evenodd"/><path fill="#000" fill-rule="evenodd" stroke="#000" stroke-width="1.659" d="M29.579 33.855h23.04c.673 0 1.234.561 1.234 1.234v10.763c0 .673-.56 1.234-1.233 1.234H29.579c-.673 0-1.233-.561-1.233-1.234V35.09c0-.673.56-1.233 1.233-1.233ZM86.59 33.855H63.55c-.673 0-1.234.561-1.234 1.234v10.763c0 .673.561 1.234 1.234 1.234h23.04c.729 0 1.233-.561 1.233-1.234V35.09c0-.673-.504-1.233-1.233-1.233ZM48.807 54.654C40.342 56.447 28.457 68.5 25.823 75.62c-1.065 2.859-1.794 5.494-2.242 7.96-4.653 26.292 24.161 29.544 34.084 19.845 9.978 9.699 38.737 6.447 34.14-19.845-.449-2.466-1.177-5.101-2.242-7.96-2.635-7.12-14.52-19.173-22.985-20.967-5.55-1.457-12.445-1.457-17.77 0Z" clip-rule="evenodd"/><path fill="#000" fill-rule="evenodd" stroke="#000" stroke-width="1.659" d="M57.16 93.166c11.1 0 20.126 6.335 20.126 14.071 0 7.793-9.026 14.071-20.126 14.071-11.155 0-20.125-6.278-20.125-14.071 0-7.736 8.97-14.07 20.126-14.07Z" clip-rule="evenodd"/><path fill="#98EFE4" fill-rule="evenodd" stroke="#000" stroke-width="1.659" d="M57.889 89.298c11.156 0 20.125 6.335 20.125 14.071 0 7.793-8.97 14.071-20.125 14.071-11.1 0-20.125-6.278-20.125-14.071 0-7.736 9.025-14.07 20.125-14.07Z" clip-rule="evenodd"/><path fill="#000" fill-rule="evenodd" stroke="#000" stroke-width="1.659" d="M50.264 61.437c-7.12 1.401-17.042 11.38-19.228 17.21-.897 2.354-1.514 4.54-1.906 6.615-3.868 21.639 20.237 24.33 28.534 16.313 8.353 8.017 32.403 5.326 28.534-16.313-.336-2.074-.953-4.26-1.85-6.615-2.186-5.83-12.108-15.809-19.228-17.21-4.653-1.234-10.427-1.234-14.856 0Z" clip-rule="evenodd"/><path fill="#98EFE4" fill-rule="evenodd" stroke="#000" stroke-width="1.659" d="M48.583 47.478c-8.857 1.794-21.19 14.183-23.937 21.414-1.065 2.972-1.85 5.719-2.299 8.241-4.82 26.909 25.115 30.216 35.486 20.294 10.315 9.922 40.25 6.615 35.43-20.294-.449-2.522-1.178-5.27-2.299-8.24-2.747-7.232-15.08-19.621-23.937-21.415-5.774-1.514-12.95-1.514-18.444 0Z" clip-rule="evenodd"/><path stroke="#000" stroke-width="1.659" d="M33.67 65.36c-9.194 1.458-16.033 3.14-22.592 6.616M81.883 65.36c9.194 1.458 16.033 3.14 22.648 6.616M32.157 77.077c-3.812.785-14.631 2.972-24.778 11.773M83.451 77.077c3.812.785 14.576 2.972 24.722 11.773M30.364 87.448c-3.476 2.074-11.605 12.11-14.968 20.013-.168.449-.112.673-.449.953M85.19 87.448c3.475 2.074 11.604 12.11 14.967 20.013.225.449.112.673.505.953"/><path fill="#000" fill-rule="evenodd" d="M67.195 104.939c2.075-.617 4.26 7.792-.056 10.988-.056.056-3.475 2.971-1.345 4.484 2.354 1.682 4.148 8.017 4.372 13.23.393 8.69-1.737 17.771-3.083 19.733.673-.056 5.942-.953 5.942-1.177-.056-.28 1.962-13.342 1.962-16.481-.055-8.746.449-17.715.449-26.573 0-3.98-1.121-3.98-5.326-4.26-.392-.056-2.354-.168-2.634-.056l-.28.112ZM48.247 104.939c-2.075-.617-4.205 7.792.112 10.988.056.056 3.42 2.971 1.345 4.484-2.354 1.682-4.204 8.017-4.428 13.23-.393 8.69 1.737 17.771 3.139 19.733-.729-.056-5.999-.953-5.943-1.177 0-.28-2.018-13.342-2.018-16.481.056-8.746-.448-17.715-.448-26.573 0-3.98 1.121-3.98 5.325-4.26.449-.056 2.411-.168 2.635-.056l.28.112Z" clip-rule="evenodd"/><path fill="#98EFE4" fill-rule="evenodd" stroke="#000" stroke-linecap="round" stroke-linejoin="round" stroke-width="1.659" d="M50.882 52.243c1.29.505 3.812 2.69 6.503 2.859h.56c2.803-.168 5.382-2.354 6.728-2.859-.112-.28-1.29-1.738-1.738-2.803-.729-1.514 1.794-2.186 3.251-2.018 3.364.336-2.69-3.644-8.52-3.588-6.336-.056-11.325 3.98-8.354 3.588 1.402-.224 3.98.504 3.252 2.018-.449 1.065-1.57 2.523-1.682 2.803Z" clip-rule="evenodd"/><path fill="#F7F7F7" fill-rule="evenodd" stroke="#000" stroke-width="1.659" d="M44.659 102.584c-2.242.281-5.27.057-8.017-.616-4.148-1.121-7.063-3.027-7.063-3.364-1.85 14.912-1.514 35.598 2.13 50.846.673 2.915 2.747 23.153 8.97 22.536 3.027-.336 2.13-14.8 2.13-31.449 0-15.417.897-32.683 1.85-37.953ZM70.894 102.584c2.243.281 5.326.057 8.073-.616 4.092-1.121 7.064-3.027 7.008-3.364 1.906 14.912 1.513 35.598-2.075 50.846-.672 2.915-2.747 23.153-8.97 22.536-3.083-.336-2.186-14.8-2.13-31.449 0-15.417-.953-32.683-1.906-37.953Z" clip-rule="evenodd"/><path stroke="#fff" stroke-width="1.659" d="m37.426 35.033-7.848 7.904M85.414 35.033 74.09 46.525M43.032 35.2 32.381 45.909M75.884 35.2 65.232 45.909"/><path stroke="#000" stroke-width="1.659" d="M57.832 97.427V84.029"/><path fill="#000" fill-rule="evenodd" d="M35.354 61.998c.28 0 .56.224.56.504 0 .337-.28.56-.56.56-.337 0-.561-.223-.561-.56 0-.28.224-.504.56-.504ZM42.53 65.81c.28 0 .504.28.504.56 0 .337-.224.56-.505.56-.336 0-.56-.224-.56-.56 0-.28.224-.56.56-.56ZM32.047 71.36c.28 0 .505.223.505.56 0 .28-.225.56-.505.56a.562.562 0 0 1-.56-.56c0-.337.224-.56.56-.56ZM35.354 78.535c.28 0 .56.224.56.56 0 .28-.28.561-.56.561a.562.562 0 0 1-.561-.56c0-.337.224-.561.56-.561ZM27.617 81.842c.28 0 .56.225.56.56 0 .281-.28.561-.56.561a.562.562 0 0 1-.56-.56c0-.337.224-.56.56-.56ZM80.592 61.998c-.337 0-.56.224-.56.504 0 .337.224.56.56.56.28 0 .56-.223.56-.56 0-.28-.28-.504-.56-.504ZM73.416 65.81c-.336 0-.56.28-.56.56 0 .337.224.56.56.56.28 0 .56-.224.56-.56 0-.28-.28-.56-.56-.56ZM83.898 71.36c-.336 0-.56.223-.56.56 0 .28.224.56.56.56.28 0 .561-.28.561-.56 0-.337-.28-.56-.56-.56ZM80.592 78.535c-.337 0-.56.224-.56.56 0 .28.224.561.56.561.28 0 .56-.28.56-.56 0-.337-.28-.561-.56-.561ZM88.328 81.842c-.336 0-.56.225-.56.56 0 .281.224.561.56.561.28 0 .505-.28.505-.56 0-.337-.224-.56-.505-.56Z" clip-rule="evenodd"/></svg>