<svg width="274" height="357" viewBox="0 0 274 357" fill="none" xmlns="http://www.w3.org/2000/svg">
<path fill-rule="evenodd" clip-rule="evenodd" d="M172.976 175.828C173.212 181.259 169.119 180.472 165.971 182.44C161.563 185.274 151.173 190.547 146.214 187.478C133.621 179.607 129.055 165.753 140.783 154.577C143.302 152.136 149.284 139.543 153.062 140.802C165.498 147.807 172.819 171.735 172.976 175.828Z" fill="#F7F7F7" stroke="black" stroke-width="1.39417"/>
<path fill-rule="evenodd" clip-rule="evenodd" d="M83.8729 312.471C84.1878 314.281 92.4524 313.73 96.1518 316.721C98.1983 318.374 98.1983 318.689 99.93 321.05C101.504 323.176 106.306 323.412 103 317.508C101.268 314.36 98.4344 312.392 95.6009 311.29C90.6421 309.322 85.3685 309.716 84.5026 307.748C84.1091 306.882 84.1878 308.22 84.1878 308.457C84.1878 309.086 83.7155 311.605 83.8729 312.471Z" fill="#F7F7F7" stroke="#0D0F1D" stroke-width="1.3604"/>
<path fill-rule="evenodd" clip-rule="evenodd" d="M102.77 320.814C103.479 320.42 104.345 320.656 104.738 321.365L109.303 329.393C109.697 330.023 109.461 330.967 108.831 331.361C108.123 331.754 107.257 331.518 106.863 330.81L102.298 322.781C101.905 322.152 102.141 321.207 102.77 320.814Z" fill="#F7F7F7" stroke="#0D0F1D" stroke-width="1.23954"/>
<path fill-rule="evenodd" clip-rule="evenodd" d="M107.247 330.81C107.168 330.416 107.562 330.023 108.192 329.787C108.821 329.55 109.451 329.708 109.53 330.023C109.608 330.338 109.215 330.81 108.585 331.046C107.955 331.203 107.326 331.125 107.247 330.81Z" fill="#0D0F1D"/>
<path fill-rule="evenodd" clip-rule="evenodd" d="M50.9007 344.585C68.1384 344.585 82.0702 346.238 81.9915 350.095C81.8341 354.03 67.8235 355.683 50.5859 355.683C33.4269 355.683 9.34139 355.762 9.49881 351.826C9.57753 347.891 33.663 344.585 50.9007 344.585Z" fill="#0D0F1D" stroke="black" stroke-width="1.23954"/>
<path fill-rule="evenodd" clip-rule="evenodd" d="M192.261 344.585C175.024 344.585 161.013 346.238 160.934 350.095C160.856 354.03 174.788 355.683 191.946 355.683C209.184 355.683 233.27 355.762 233.348 351.826C233.427 347.891 209.499 344.585 192.261 344.585Z" fill="#0D0F1D" stroke="black" stroke-width="1.23954"/>
<path fill-rule="evenodd" clip-rule="evenodd" d="M130.87 65.6323C127.485 35.5648 97.7323 13.2896 69.2389 30.9209C60.7382 36.1945 55.8581 43.9869 52.8671 52.645C45.9405 72.6376 48.0657 101.997 30.7494 142.926C18.1556 181.337 73.3319 199.756 28.6242 241.945C25.948 252.177 25.1609 275.711 16.2666 289.171C14.3775 291.926 13.9052 295.153 13.5117 297.672C11.7013 307.825 19.7298 314.201 28.6242 321.128C33.032 324.512 37.5972 329.314 41.3753 332.147C59.9511 346 56.6452 342.852 64.595 342.852C72.4661 342.852 99.3852 347.574 99.7 336.948C99.9362 327.424 96.2368 322.151 92.3799 317.586C87.5786 312.076 82.3837 307.275 75.8507 301.135C73.7255 299.167 118.354 315.224 145.982 296.885C146.139 296.806 160.071 316.484 162.905 319.632C177.545 335.925 183.763 349.385 204.149 325.063C211.942 315.775 196.278 324.276 204.7 313.099C210.289 305.779 208.321 299.089 201.945 297.672C193.287 295.783 197.459 288.856 190.217 288.856C187.62 277.601 190.69 262.173 187.935 256.034C187.777 255.719 195.963 241.079 194.94 218.646C193.917 196.922 166.919 165.91 157.316 162.21C157.552 163.234 159.284 142.611 151.492 129.546C130.161 94.2043 174.633 91.6069 134.648 66.4194C132.995 65.4749 132.759 65.4749 130.87 65.6323Z" fill="#98EFE4"/>
<path d="M131.336 66.8145C127.872 35.4876 99.1429 14.7866 70.7283 29.7417C60.3384 35.2514 52.3099 46.3496 49.3976 64.1383C46.2492 83.7373 45.1472 108.925 30.7432 142.928" stroke="black" stroke-width="1.3604"/>
<path d="M32.3975 138.835C28.6981 147.651 64.1967 176.38 61.9928 180.316C61.7566 180.788 41.4493 249.581 50.0287 251.47" stroke="black" stroke-width="1.35947"/>
<path d="M154.473 164.414C187.453 178.346 202.486 221.479 188.318 255.246C188.24 255.325 186.508 285.944 189.656 292.319C191.546 296.019 209.964 284.605 211.774 305.464C211.932 307.195 222.794 303.811 214.372 313.886C211.538 317.27 205.713 323.489 202.722 326.716C195.796 334.272 169.113 325.771 154.237 313.178C150.931 310.344 146.602 301.292 144.949 299.01" stroke="black" stroke-width="1.35947"/>
<path d="M73.0159 297.359C76.2431 300.98 85.3735 309.638 90.5684 315.778C103.713 331.126 98.7543 342.225 94.8975 342.461C88.6794 342.854 69.0804 343.012 65.4597 342.854C56.4079 342.382 55.3847 342.146 50.2685 337.896C42.24 331.363 32.9521 324.515 24.2152 317.195C12.3299 307.277 11.8576 301.295 17.2887 287.757C21.539 276.973 28.5443 242.498 29.0953 241.317" stroke="black" stroke-width="1.35947"/>
<path fill-rule="evenodd" clip-rule="evenodd" d="M97.258 343.01C91.0399 343.404 71.3622 343.561 67.8202 343.325C58.6897 342.932 57.7452 342.696 52.5503 338.445C44.5218 331.912 29.4093 331.44 20.6724 324.12C12.9587 317.744 7.44897 314.596 7.76381 308.378C7.99995 304.993 12.1716 299.169 14.0607 294.367C18.3111 283.663 24.7654 294.525 25.395 293.423C25.946 298.145 50.5038 309.952 60.2639 309.952C63.5698 309.952 73.4086 307.827 80.7287 307.591C90.5676 307.276 111.111 342.066 97.258 343.01Z" fill="#C584F6" stroke="black" stroke-width="1.35947"/>
<path d="M72.1423 296.729C81.1154 303.498 104.178 310.188 126.61 304.679C152.742 298.303 178.402 278.94 189.028 253.517" stroke="black" stroke-width="1.35978"/>
<path fill-rule="evenodd" clip-rule="evenodd" d="M51.3624 306.802C51.2837 305.857 64.5858 321.127 67.3407 322.544C68.1278 322.859 90.6391 323.41 90.6391 322.544C90.6391 319.868 83.1616 310.973 82.5319 309.084C74.2673 309.084 59.5483 307.746 51.3624 306.802Z" fill="#E9CCFF" stroke="black" stroke-width="1.23954"/>
<path fill-rule="evenodd" clip-rule="evenodd" d="M92.1408 319.083C87.2607 316.092 67.0321 310.346 52.2344 309.323C50.5028 308.693 50.1092 313.652 53.9661 313.652C74.0373 317.587 78.3664 318.768 90.5666 323.019C91.6685 323.412 95.1318 321.366 92.1408 319.083Z" fill="#F7F7F7" stroke="black" stroke-width="1.23954"/>
<path fill-rule="evenodd" clip-rule="evenodd" d="M62.3101 320.026C65.3798 317.114 77.1077 311.368 84.2704 309.951C85.2936 309.322 87.8911 313.651 85.5297 313.651C73.1721 317.586 72.5425 319.397 64.9862 323.647C64.2778 324.119 60.421 322.388 62.3101 320.026Z" fill="#F7F7F7" stroke="black" stroke-width="1.23954"/>
<path fill-rule="evenodd" clip-rule="evenodd" d="M101.348 244.936C105.205 252.65 172.03 251.233 193.754 234.94C195.092 233.917 191.472 246.668 189.976 254.145C188.874 259.97 190.842 281.615 189.976 283.032C182.499 284.292 154.871 317.035 154.241 316.169C151.88 312.942 146.685 299.719 145.662 299.955C144.403 300.27 140.625 303.576 130.313 305.229C118.9 307.118 98.9078 307.747 86.3141 304.048C84.8186 303.576 83.7953 309.479 83.4018 309.873C82.8508 310.424 72.1461 312.942 56.7975 309.4C38.694 305.229 15.8679 291.297 16.8911 288.778C20.4331 280.828 25.5493 242.89 26.5726 236.986C26.5726 236.986 37.6708 238.246 47.3522 240.843C61.0479 244.621 87.2586 258.711 101.112 246.038C101.584 245.487 100.639 243.519 101.348 244.936Z" fill="#E9CCFF" stroke="black" stroke-width="1.3604"/>
<path fill-rule="evenodd" clip-rule="evenodd" d="M14.296 246.591C75.533 276.029 201.313 253.36 202.336 242.34C204.697 218.491 189.113 187.558 171.009 171.579C166.68 167.723 161.957 164.338 157.314 162.213C156.684 160.402 151.489 159.458 144.484 148.202C137.872 137.419 144.169 150.878 113.944 150.878C82.6957 150.878 62.8606 145.526 34.8395 132.854C33.895 132.381 24.371 147.415 18.389 160.953C11.305 176.853 7.68429 191.729 8.94366 192.674C14.296 196.531 23.6626 198.341 23.8987 197.082C24.2136 195.744 12.5644 245.804 14.296 246.591Z" fill="#F7F7F7" stroke="black" stroke-width="1.3604"/>
<path d="M68.0576 196.135C70.9699 195.899 72.9377 195.111 73.0951 195.033C74.1971 194.639 74.9055 194.246 74.9055 193.931C74.8267 192.357 76.7945 171.734 78.0539 170.554" stroke="black" stroke-width="1.3604"/>
<path fill-rule="evenodd" clip-rule="evenodd" d="M148.655 305.073C149.443 304.758 169.278 285.002 173.528 281.853C180.218 276.894 183.446 274.769 190.057 272.802C191.317 272.408 188.877 259.578 189.979 253.832C190.057 253.675 184.469 269.653 164.083 287.127C156.841 293.345 145.35 299.406 145.507 299.484C146.058 299.721 148.577 305.073 148.655 305.073Z" fill="black"/>
<path fill-rule="evenodd" clip-rule="evenodd" d="M38.5334 124.195C56.7156 133.326 84.2644 141.826 108.665 142.928C121.888 143.479 124.092 142.377 136.056 139.937C138.968 139.386 145.187 143.637 139.913 147.257C137.866 148.596 131.963 149.698 126.768 150.642C101.974 155.129 62.6189 146.47 38.2186 135.372C37.1166 134.9 34.283 133.955 34.1256 132.853C33.8895 132.224 36.4869 123.015 38.5334 124.195Z" fill="#F7F7F7" stroke="black" stroke-width="1.23954"/>
<path fill-rule="evenodd" clip-rule="evenodd" d="M93.0117 284.371C93.4053 284.686 89.5484 298.303 92.3033 305.072C91.9885 305.072 86.5574 303.813 85.7703 304.285C85.4555 304.442 85.4555 304.836 85.1406 304.6L93.0117 284.371Z" fill="black" stroke="black" stroke-width="1.23954"/>
<path fill-rule="evenodd" clip-rule="evenodd" d="M62.3878 355.29C68.7634 355.526 78.2874 355.132 86.3159 354.896C94.0296 354.66 100.326 354.66 101.114 354.345C105.364 352.377 108.67 337.108 101.822 337.344C98.2799 337.501 96.4696 328.764 92.2979 328.843C91.8257 328.922 87.0243 328.449 86.3946 328.843C83.1675 330.889 80.3339 337.816 67.5827 337.58C60.7349 337.501 54.438 337.265 52.3128 336.635C39.4043 332.778 25.2363 320.736 15.3975 312.235C12.8 310.031 10.7535 308.142 8.47091 306.568C8.31349 306.41 9.33673 304.364 9.17931 304.206C5.79474 302.632 2.41018 311.684 1.46565 315.383C0.127565 320.421 1.07209 322.389 2.96115 324.12C9.73028 330.417 16.9717 335.769 24.2918 341.358C36.8855 350.882 46.8031 354.817 62.3878 355.29Z" fill="#F7F7F7" stroke="black" stroke-width="1.23954"/>
<path d="M15.3979 312.235C17.2083 308.142 20.0419 296.178 19.5696 292.006" stroke="black" stroke-width="1.23954"/>
<path d="M23.7458 294.917C32.7189 326.165 45.9423 340.254 45.3913 309.793C45.3913 309.478 45.3913 305.779 45.2339 305.622" stroke="black" stroke-width="1.23954"/>
<path d="M91.4368 323.018C93.8768 323.726 97.3401 325.458 98.442 325.772" stroke="black" stroke-width="1.23954"/>
<path d="M63.5663 323.409C63.8811 322.779 42.4718 331.91 42.5505 331.831" stroke="black" stroke-width="1.23954"/>
<path fill-rule="evenodd" clip-rule="evenodd" d="M67.7368 322.228C67.8155 321.677 71.6724 320.418 72.5382 320.339C73.8763 320.182 76.0015 319.08 77.1821 319.08C77.1821 318.686 75.2931 317.978 74.7421 318.214C73.7975 318.686 67.7368 322.307 67.7368 322.228Z" fill="black" stroke="black" stroke-width="1.23954"/>
<path fill-rule="evenodd" clip-rule="evenodd" d="M86.0777 313.807C85.5267 314.043 83.6376 315.145 83.4015 315.617C83.4015 315.617 81.9847 315.145 82.2996 314.987C83.5589 314.436 84.8183 314.279 86.0777 313.807Z" fill="black" stroke="black" stroke-width="1.23954"/>
<path fill-rule="evenodd" clip-rule="evenodd" d="M53.9619 313.651C56.0084 313.73 61.5182 315.855 63.4072 316.879C65.2176 317.902 63.7221 317.902 66.5556 316.957C67.5002 316.642 67.7363 316.564 67.0279 316.406C65.6111 316.013 64.4305 315.855 62.9349 315.383C61.3607 314.911 58.2123 314.596 56.4807 314.517C55.7723 314.438 54.4342 313.651 53.9619 313.651Z" fill="black" stroke="black" stroke-width="1.23954"/>
<path d="M74.5054 319.868C76.8667 319.868 77.1815 319.868 79.3854 320.262C81.2745 320.655 82.219 320.891 84.2655 321.442C88.2798 322.387 85.5249 321.679 83.872 320.97C80.9597 319.789 79.3067 319.632 76.6306 319.002C76.1583 318.845 74.8989 319.475 74.5054 319.789L74.5841 319.553" stroke="black" stroke-width="1.23954"/>
<path d="M25.3154 295.311C31.6123 281.93 33.4226 260.285 35.7053 252.729L36.6498 253.358" stroke="black" stroke-width="1.23954"/>
<path d="M33.2656 263.828C45.8594 266.425 88.2058 269.888 95.211 254.697L95.6046 253.674" stroke="black" stroke-width="1.23954"/>
<path fill-rule="evenodd" clip-rule="evenodd" d="M23.8189 257.137C27.5183 259.341 61.6001 261.545 66.5588 259.577C66.6376 259.498 57.7432 258.396 55.2245 258.003C40.2694 255.563 24.9208 251.076 24.9208 251.47C24.8421 252.572 23.504 256.979 23.8189 257.137Z" fill="black"/>
<path fill-rule="evenodd" clip-rule="evenodd" d="M43.5724 305.782C41.6833 305.468 39.4007 313.496 35.229 316.094C33.0251 317.589 32.7103 317.432 29.798 318.376C27.2792 319.242 25.3902 323.729 32.1593 322.312C35.7013 321.603 38.6136 319.557 40.5813 317.196C44.202 313.024 45.6188 307.986 47.8227 307.75C48.7673 307.593 47.5079 307.278 47.2718 307.199C46.6421 307.042 44.4382 305.861 43.5724 305.782Z" fill="#F7F7F7" stroke="#0D0F1D" stroke-width="1.3604"/>
<path fill-rule="evenodd" clip-rule="evenodd" d="M29.0112 321.131C29.1687 321.918 28.6964 322.627 27.9093 322.784L18.6214 324.752C17.913 324.909 17.1259 324.437 16.9685 323.729C16.8898 322.941 17.362 322.154 18.1491 321.997L27.437 320.029C28.1454 319.872 28.9325 320.344 29.0112 321.131Z" fill="#F7F7F7" stroke="#0D0F1D" stroke-width="1.23954"/>
<path fill-rule="evenodd" clip-rule="evenodd" d="M18.0729 322.39C18.4665 322.39 18.7026 322.941 18.7026 323.57C18.7026 324.279 18.3877 324.751 17.9942 324.751C17.6793 324.751 17.3645 324.279 17.3645 323.57C17.4432 322.941 17.6793 322.39 18.0729 322.39Z" fill="#0D0F1D"/>
<path fill-rule="evenodd" clip-rule="evenodd" d="M179.83 285.473C179.83 284.765 178.019 280.908 181.325 279.57C183.45 278.704 194.076 278.468 196.438 279.963C198.878 281.616 206.985 282.01 207.142 283.112C207.615 286.339 195.729 288.7 193.289 288.857C189.905 289.094 182.191 288.779 179.83 285.709V285.473Z" fill="#E9CCFF" stroke="black" stroke-width="1.23954"/>
<path fill-rule="evenodd" clip-rule="evenodd" d="M154.953 332.071C151.726 332.543 152.434 330.024 151.175 327.742C149.758 325.223 142.91 306.726 146.846 305.23C148.105 304.758 152.198 308.536 159.833 303.814C163.532 301.531 167.468 294.998 171.482 290.984C174.079 288.386 173.922 287.599 177.621 286.261C183.131 284.372 182.108 283.349 189.979 283.427C198.873 283.506 203.045 282.955 211.467 282.011C217.528 281.381 223.982 285.002 218.866 292.322C214.301 298.855 204.698 301.295 197.85 305.939C191.632 310.189 187.067 313.574 181.163 317.903C175.654 321.917 174.867 323.885 169.514 328.922C167.232 331.126 155.897 337.344 154.874 332.779C154.795 332.464 155.031 332.071 154.953 332.071Z" fill="#C584F6" stroke="black" stroke-width="1.23954"/>
<path fill-rule="evenodd" clip-rule="evenodd" d="M170.538 311.762C184.391 300.979 201.471 289.959 217.685 285.709C217.922 285.63 216.741 283.82 218.394 283.347C222.251 282.245 230.751 292.084 231.538 294.997C232.089 297.279 226.422 304.599 217.607 315.147C214.301 319.082 188.562 336.241 183.21 338.13C177.385 340.177 163.296 350.015 160.62 350.724C158.416 350.409 149.522 334.982 151.647 331.912C156.212 325.379 164.398 316.563 170.538 311.762Z" fill="#F7F7F7" stroke="black" stroke-width="1.23954"/>
<path fill-rule="evenodd" clip-rule="evenodd" d="M225.788 294.996C245.308 292.241 210.754 323.175 195.406 333.879C179.664 344.899 162.662 354.58 159.277 350.015C157.939 348.126 159.907 346.079 166.912 336.162C176.122 323.175 209.888 297.279 225.788 294.996Z" fill="#98EFE4" stroke="black" stroke-width="1.23954"/>
<path fill-rule="evenodd" clip-rule="evenodd" d="M194.073 279.256C197.064 278.626 200.842 281.066 195.411 281.853C193.994 282.011 191.554 283.743 188.721 284.844C185.73 285.946 183.29 287.285 182.975 286.734C180.535 282.011 191.633 279.728 194.073 279.256Z" fill="#F7F7F7" stroke="black" stroke-width="1.23954"/>
<path fill-rule="evenodd" clip-rule="evenodd" d="M193.836 285.471C193.758 283.661 198.323 279.411 200.92 280.198C201.235 280.276 201.944 280.355 201.865 280.827C202.416 281.142 197.772 286.573 196.04 286.652C194.624 286.652 193.915 286.573 193.836 285.471Z" fill="#F7F7F7" stroke="black" stroke-width="1.23954"/>
<path fill-rule="evenodd" clip-rule="evenodd" d="M15.0007 195.978C15.0794 200.858 16.7324 216.837 19.8021 226.912C24.8396 243.047 32.9468 255.877 44.596 264.929C47.6657 267.369 76.159 267.212 82.5346 263.984C83.7153 263.355 97.8832 266.424 97.8832 255.484C97.8832 245.487 79.4649 247.219 78.3629 245.33C72.9319 235.491 71.279 195.742 70.9641 195.742C61.4401 197.238 31.2152 198.261 19.3298 196.765C17.9917 196.608 15.8666 196.372 15.0007 195.978Z" fill="#98EFE4" stroke="black" stroke-width="1.39417"/>
<path fill-rule="evenodd" clip-rule="evenodd" d="M15.3968 202.432C14.6097 202.274 53.178 201.645 65.0634 196.45C65.7717 196.135 39.0101 197.788 38.3804 197.788C34.9958 197.788 30.8241 197.552 26.8099 197.394C22.6382 197.316 18.624 197.867 15.7117 195.741C15.1607 195.269 15.3968 197.473 15.3181 198.339C15.3181 198.89 15.082 201.881 14.9246 202.353L15.3968 202.432Z" fill="black"/>
<path fill-rule="evenodd" clip-rule="evenodd" d="M174.238 290.746C173.136 292.242 175.261 299.326 173.372 303.812C172.349 306.331 171.955 306.41 170.145 308.85C168.57 310.975 169.594 315.619 174.395 310.581C176.914 307.984 178.094 304.678 178.409 301.608C178.96 296.256 177.229 291.297 178.882 289.88C179.984 288.857 176.914 286.968 174.238 290.746Z" fill="#F7F7F7" stroke="#0D0F1D" stroke-width="1.3604"/>
<path fill-rule="evenodd" clip-rule="evenodd" d="M171.089 311.446C171.64 311.997 171.719 312.863 171.168 313.414L164.556 320.419C164.084 320.97 163.14 321.049 162.589 320.498C162.038 319.947 162.038 319.081 162.589 318.53L169.122 311.525C169.672 310.974 170.538 310.895 171.089 311.446Z" fill="#F7F7F7" stroke="#0D0F1D" stroke-width="1.23954"/>
<path fill-rule="evenodd" clip-rule="evenodd" d="M162.749 318.846C163.064 318.61 163.615 318.925 163.93 319.476C164.324 319.948 164.402 320.578 164.088 320.814C163.773 320.971 163.222 320.735 162.907 320.184C162.513 319.633 162.435 319.082 162.749 318.846Z" fill="#0D0F1D"/>
<path fill-rule="evenodd" clip-rule="evenodd" d="M44.5952 264.929L34.1267 254.539L39.5578 264.693L44.5952 264.929Z" fill="black"/>
<path d="M196.282 286.812C195.731 287.913 195.023 294.21 195.652 294.919" stroke="black" stroke-width="1.39417"/>
<path fill-rule="evenodd" clip-rule="evenodd" d="M49.1682 53.3542C52.0018 38.3204 53.6547 31.4726 62.3916 22.1847C72.0731 11.8736 89.9404 7.85933 105.446 17.1472C112.137 21.1615 114.026 24.4673 118.198 35.0146C118.198 35.0146 115.994 30.2919 106.312 30.2919C96.1586 30.3706 79.9441 35.4868 75.9299 36.7462C58.5348 42.1772 49.1682 53.3542 49.1682 53.3542Z" fill="#0D0F1D" stroke="#0D0F1D" stroke-width="1.3604"/>
<path fill-rule="evenodd" clip-rule="evenodd" d="M48.8485 57.7638C47.7465 58.8658 48.1401 60.6761 47.6678 60.44C44.5981 58.8658 45.4639 52.2541 46.7233 47.2953C48.0614 41.9429 48.6911 36.5906 50.1079 35.2525C63.1739 23.5246 98.8299 18.0148 115.595 22.1078C117.878 22.6588 120.082 27.5389 122.128 31.5531C124.175 35.5674 125.828 38.8732 122.679 40.841C122.207 41.0771 103.159 38.7945 83.9535 44.0681C64.4332 49.4992 52.0756 56.5831 48.8485 57.7638Z" fill="#0D0F1D" stroke="black" stroke-width="1.39417"/>
<path d="M119.303 38.2426C120.799 37.0619 119.303 34.858 117.886 32.1818C116.469 29.2695 114.502 25.0979 114.344 24.9404" stroke="black" stroke-width="1.39417"/>
<path d="M113.862 38.2439C115.909 36.04 113.705 32.3406 111.895 28.5625C111.029 26.6734 110.478 25.0992 110.006 24.2334" stroke="black" stroke-width="1.39417"/>
<path d="M108.436 38.2422C109.223 37.4551 109.774 34.8576 108.908 32.9685C107.964 30.8433 106.862 26.9078 105.366 24.7826C105.051 24.3104 105.445 24.6252 104.815 24.0742" stroke="black" stroke-width="1.39417"/>
<path d="M51.0515 53.2744C50.107 52.4086 50.6579 51.3853 51.1302 48.5517C51.6812 45.4033 52.8618 40.051 53.4915 36.7451" stroke="black" stroke-width="1.39417"/>
<path d="M56.6412 51.072C55.3818 50.4424 55.9328 48.3959 56.3263 45.4836C56.7199 42.8074 57.9793 36.0383 58.5302 33.9131" stroke="black" stroke-width="1.39417"/>
<path fill-rule="evenodd" clip-rule="evenodd" d="M57.7443 66.0252C55.383 67.0485 50.0307 79.0125 54.9107 78.1467C56.9572 77.7531 57.9018 69.5672 61.0502 68.7014C62.7031 68.2291 64.7496 67.2846 65.9303 66.891C67.2683 66.4188 67.6619 66.5762 68.449 68.3078C69 69.6459 71.7549 76.966 73.7226 76.1789C76.2414 75.077 90.5667 70.5905 90.8816 70.5905C91.1964 70.5905 88.5203 62.1684 88.6777 58.7051C88.6777 58.3903 88.048 54.4547 87.9693 54.6909L57.7443 66.0252Z" fill="#E9CCFF" stroke="black" stroke-width="1.23954"/>
<path fill-rule="evenodd" clip-rule="evenodd" d="M94.74 52.0162C98.7542 51.78 104.185 51.3865 110.089 50.7568C113.709 50.442 114.024 51.1504 114.575 51.4652C117.094 53.1968 117.802 53.0394 118.589 52.331C119.455 51.6226 120.4 50.2058 123.942 49.891C125.673 49.8123 133.308 48.7103 138.346 48.3955C142.675 48.0806 143.777 48.5529 144.721 52.4097C145.351 55.0072 146.374 59.7298 146.453 62.406C146.532 65.6331 144.013 66.0267 143.226 66.1841C140.314 66.8138 131.419 67.9945 125.516 68.2306C122.525 68.388 122.682 67.7583 121.58 66.3415C120.872 65.5544 119.455 65.4757 118.904 66.2628C118.117 67.2861 117.645 69.49 113.788 69.49C111.191 69.49 103.477 70.8281 98.1245 71.1429C94.2677 71.4577 92.0638 71.5365 90.8044 69.9622C90.0173 68.939 89.8599 67.4435 89.4664 65.7119C88.9941 63.6654 88.4431 60.5169 88.207 58.864C87.7347 54.8498 88.0496 52.4097 94.74 52.0162Z" fill="#E9CCFF" stroke="black" stroke-width="1.23954"/>
<path fill-rule="evenodd" clip-rule="evenodd" d="M93.4054 54.929L111.352 53.2761C112.926 53.1973 114.343 54.1419 114.657 55.6374L116.153 63.6659C116.468 65.2401 115.444 66.7356 113.949 66.893L95.9242 68.5459C94.4287 68.6247 92.9332 67.6801 92.6183 66.1846L91.1228 58.1561C90.808 56.5819 91.8312 55.0864 93.4054 54.929Z" fill="black" stroke="black" stroke-width="0.546637"/>
<path fill-rule="evenodd" clip-rule="evenodd" d="M122.839 52.33L138.975 50.6771C140.549 50.5197 142.044 51.5429 142.281 53.0384L143.855 61.0669C144.091 62.5624 143.068 64.0579 141.572 64.2154L125.436 65.8683C123.862 66.0257 122.367 65.0812 122.131 63.507L120.556 55.4785C120.32 53.9829 121.343 52.4874 122.839 52.33Z" fill="black" stroke="black" stroke-width="0.546637"/>
<path d="M112.292 54.2969L104.106 66.4971" stroke="white" stroke-width="1.23954"/>
<path d="M130.001 53.0391L124.176 62.4844" stroke="white" stroke-width="1.23954"/>
<path d="M141.963 57.6045L138.736 63.1142" stroke="white" stroke-width="1.23954"/>
<path fill-rule="evenodd" clip-rule="evenodd" d="M115.748 69.2533C113.938 70.5127 96.5427 70.434 88.8291 79.0135C88.5142 79.3283 83.949 75.3928 73.7166 76.1799C68.9152 76.4947 77.3373 75.3928 79.5412 74.6844C82.5322 73.8186 86.1529 71.7721 89.3013 70.9063C92.6072 69.9617 90.2459 70.5127 93.8666 70.7488C98.1957 71.1424 103.391 70.2766 107.877 70.0405C108.743 69.9617 116.142 68.9385 115.748 69.2533Z" fill="black"/>
<path d="M139.761 164.258C132.441 167.406 102.138 175.199 84.7425 167.8C84.349 167.642 84.2703 167.957 84.349 167.406" stroke="black" stroke-width="1.23954"/>
<path fill-rule="evenodd" clip-rule="evenodd" d="M82.3054 118.605C82.2267 118.447 86.0835 131.75 99.3856 137.181C99.3856 136.315 99.7792 132.852 98.9921 132.615C88.4448 128.916 82.4628 119.313 82.3054 118.605Z" fill="black"/>
<path fill-rule="evenodd" clip-rule="evenodd" d="M96.6269 134.898C96.1546 135.134 94.6591 139.306 95.5249 141.431C95.9185 142.376 97.9649 141.037 97.8862 142.061C97.0991 151.191 94.2655 159.534 96.863 170.948C97.0991 171.892 98.9882 172.207 100.326 174.804C102.451 179.055 104.97 186.611 105.993 189.759C107.095 192.987 106.859 196.214 107.489 197.945C108.748 201.802 110.086 200.228 111.188 190.153C111.582 187.005 111.661 179.055 108.67 173.388C107.883 171.892 107.883 171.656 106.466 170.397C106.466 170.397 105.836 161.424 106.072 159.062C106.151 157.882 101.9 134.347 99.7753 134.426C97.9649 134.504 98.3585 133.796 96.6269 134.898Z" fill="black" stroke="black" stroke-width="1.23954"/>
<path fill-rule="evenodd" clip-rule="evenodd" d="M131.417 140.958C131.417 140.958 134.015 139.62 134.093 140.092C134.251 144.027 135.432 162.603 136.061 165.83C136.219 166.854 138.108 167.562 139.21 170.238C141.177 174.961 142.516 182.753 142.594 183.462C142.988 186.216 143.303 191.569 145.507 186.059C146.766 182.989 147.474 172.914 142.83 165.279C140.784 162.052 142.909 151.269 142.673 150.482C142.201 149.144 140.075 145.759 138.659 141.351C138.108 139.698 136.848 135.684 135.589 136.235C135.038 136.471 130.788 139.384 130 140.958C130 141.115 131.496 140.8 131.417 140.958Z" fill="black" stroke="black" stroke-width="1.23954"/>
<path fill-rule="evenodd" clip-rule="evenodd" d="M150.392 116.638C153.147 124.273 161.569 164.809 158.263 202.747C157.633 210.618 152.517 209.123 151.258 204.164C150.628 201.724 150.392 198.103 149.841 195.112C148.975 190.39 146.614 169.217 145.039 163.234C142.678 154.498 139.215 144.501 136.303 136.866C136.145 136.473 136.066 136.079 135.909 135.686C135.909 135.686 136.145 135.528 137.011 134.426C138.664 132.222 140.317 129.153 141.104 126.791C141.497 125.768 134.413 124.587 136.066 124.666C142.521 124.902 151.1 119.629 150.392 116.638Z" fill="#F7F7F7" stroke="black" stroke-width="1.36784"/>
<path fill-rule="evenodd" clip-rule="evenodd" d="M122.057 128.917C116.233 134.663 101.435 137.654 100.569 130.57C101.907 139.464 108.44 173.389 130.951 210.383C135.595 218.018 139.924 215.341 138.586 209.674C137.878 206.998 136.383 203.22 135.359 199.914C133.785 194.798 131.03 182.204 129.535 175.514C125.363 157.332 122.608 131.751 122.057 128.917Z" fill="#F7F7F7"/>
<path d="M99.9358 130.647L101.274 130.49L101.353 130.962L101.51 131.435L101.746 131.907L101.982 132.3L102.376 132.615L102.769 132.93L103.163 133.166L103.714 133.402L104.265 133.638L104.895 133.796L105.603 133.875L106.233 133.953H107.02H107.807H108.594L109.381 133.796L110.247 133.717L111.034 133.56L111.9 133.324L112.766 133.166L113.631 132.851L114.497 132.615L115.284 132.3L116.15 131.907L116.937 131.513L117.724 131.12L118.433 130.726L119.141 130.333L119.85 129.86L120.479 129.388L121.109 128.837L121.66 128.365L122.526 129.467L121.975 130.018L121.266 130.569L120.637 131.041L119.85 131.592L119.141 132.064L118.275 132.458L117.488 132.93L116.622 133.324L115.757 133.638L114.891 133.953L114.025 134.268L113.08 134.583L112.215 134.819L111.349 134.977L110.404 135.134L109.539 135.291L108.673 135.37L107.807 135.449H107.02H106.154L105.367 135.37L104.658 135.213L103.95 135.055L103.242 134.819L102.612 134.504L102.061 134.189L101.51 133.717L101.038 133.245L100.644 132.694L100.251 132.064L100.015 131.435L99.9358 130.647ZM131.499 209.988L130.397 210.775L128.272 207.312L126.304 203.849L124.415 200.464L122.605 197.079L120.873 193.695L119.299 190.389L117.724 187.083L116.229 183.856L114.891 180.708L113.553 177.559L112.293 174.489L111.113 171.498L110.089 168.586L108.988 165.674L108.043 162.919L107.177 160.164L106.311 157.567L105.524 154.969L104.816 152.529L104.186 150.168L103.556 147.885L103.006 145.76L102.533 143.713L102.061 141.746L101.667 139.935L101.274 138.204L100.959 136.629L100.644 135.134L100.408 133.875L100.251 132.615L100.093 131.592L99.9358 130.647L101.274 130.411L101.353 131.356L101.589 132.379L101.746 133.56L101.982 134.898L102.297 136.315L102.612 137.889L102.927 139.62L103.399 141.431L103.793 143.32L104.344 145.366L104.895 147.492L105.446 149.774L106.154 152.136L106.862 154.576L107.649 157.094L108.437 159.692L109.302 162.368L110.326 165.202L111.349 168.035L112.372 170.947L113.553 173.938L114.812 177.008L116.072 180.078L117.488 183.226L118.905 186.453L120.479 189.681L122.132 192.986L123.785 196.371L125.596 199.677L127.485 203.14L129.452 206.525L131.499 209.988ZM137.874 209.909L139.212 209.516L139.291 210.067L139.449 210.618V211.169V211.641V212.113V212.585L139.37 213.058L139.212 213.451L139.055 213.924L138.898 214.238L138.662 214.632L138.425 214.947L138.189 215.183L137.874 215.419L137.56 215.576L137.166 215.734L136.772 215.813H136.379H135.985L135.592 215.734L135.198 215.576L134.805 215.419L134.332 215.183L133.939 214.947L133.467 214.553L133.073 214.238L132.601 213.766L132.129 213.294L131.735 212.743L131.263 212.192L130.79 211.483L130.397 210.775L131.499 209.988L131.892 210.618L132.365 211.247L132.758 211.798L133.152 212.271L133.545 212.743L133.939 213.058L134.332 213.451L134.647 213.687L134.962 213.924L135.356 214.081L135.592 214.238L135.907 214.317H136.143L136.379 214.396L136.615 214.317H136.851L137.009 214.238L137.166 214.16L137.323 214.002L137.481 213.924L137.638 213.687L137.717 213.53L137.874 213.294L137.953 213.058L138.032 212.743L138.111 212.428V212.034V211.641V211.247L138.032 210.854V210.382L137.874 209.909ZM134.726 200.149L135.985 199.677L136.064 199.992L136.221 200.307L136.3 200.621L136.379 200.936L136.536 201.251L136.615 201.566L136.694 201.881L136.851 202.196L136.93 202.51L137.087 202.825L137.166 203.14L137.245 203.455L137.402 203.77L137.481 204.085L137.638 204.399L137.717 204.793L137.796 205.108L137.953 205.423L138.032 205.738L138.189 206.052L138.268 206.289L138.347 206.603L138.425 206.918L138.583 207.233L138.662 207.548L138.74 207.863L138.819 208.099L138.898 208.414L138.976 208.729L139.055 208.965L139.134 209.28L139.212 209.516L137.874 209.909L137.796 209.673V209.358L137.717 209.122L137.638 208.886L137.56 208.571L137.481 208.335L137.402 208.02L137.245 207.705L137.166 207.391L137.087 207.154L137.009 206.84L136.851 206.525L136.772 206.21L136.694 205.895L136.536 205.58L136.458 205.265L136.379 204.95L136.221 204.636L136.143 204.321L135.985 204.006L135.907 203.691L135.749 203.376L135.67 202.983L135.592 202.668L135.434 202.353L135.356 202.038L135.198 201.723L135.12 201.408L135.041 201.094L134.883 200.779L134.805 200.464L134.726 200.149ZM128.901 175.67L130.161 175.276L130.318 175.985L130.476 176.615L130.633 177.323L130.79 178.11L130.948 178.818L131.184 179.606L131.341 180.393L131.499 181.259L131.735 182.046L131.892 182.911L132.129 183.777L132.286 184.643L132.522 185.509L132.679 186.375L132.916 187.241L133.073 188.106L133.309 188.972L133.467 189.838L133.703 190.704L133.86 191.491L134.096 192.357L134.254 193.144L134.49 193.931L134.647 194.639L134.805 195.426L135.041 196.135L135.198 196.765L135.356 197.473L135.513 198.024L135.67 198.654L135.828 199.205L135.985 199.677L134.726 200.149L134.569 199.598L134.411 199.047L134.254 198.496L134.096 197.866L133.86 197.237L133.703 196.528L133.545 195.82L133.388 195.033L133.152 194.325L132.994 193.537L132.758 192.672L132.601 191.884L132.365 191.019L132.207 190.153L131.971 189.366L131.735 188.5L131.578 187.634L131.341 186.69L131.184 185.824L130.948 184.958L130.79 184.092L130.554 183.226L130.397 182.439L130.239 181.573L130.003 180.786L129.846 179.999L129.688 179.212L129.531 178.425L129.295 177.717L129.138 177.008L128.98 176.3L128.901 175.67ZM122.526 129.467L121.66 128.365L122.762 128.758L122.841 129.152V129.624L122.998 130.175L123.077 130.884L123.155 131.671L123.313 132.615L123.392 133.638L123.549 134.74L123.706 135.921L123.864 137.259L124.021 138.597L124.257 140.014L124.415 141.51L124.651 143.084L124.887 144.658L125.123 146.39L125.359 148.043L125.596 149.853L125.91 151.585L126.146 153.395L126.461 155.284L126.697 157.094L127.012 158.983L127.327 160.794L127.642 162.683L128.036 164.572L128.35 166.382L128.665 168.271L129.059 170.082L129.452 171.813L129.767 173.624L130.161 175.276L128.901 175.67L128.508 173.938L128.114 172.207L127.721 170.396L127.406 168.586L127.012 166.697L126.697 164.808L126.383 162.998L125.989 161.109L125.674 159.219L125.359 157.33L125.123 155.52L124.808 153.631L124.572 151.821L124.257 150.089L124.021 148.279L123.785 146.626L123.549 144.894L123.313 143.32L123.077 141.746L122.919 140.25L122.683 138.833L122.526 137.417L122.368 136.157L122.211 134.977L122.054 133.875L121.896 132.851L121.817 131.907L121.739 131.12L121.581 130.411L121.503 129.782V129.388L121.424 129.073L122.526 129.467ZM121.66 128.365L122.526 127.499L122.762 128.758L121.66 128.365Z" fill="black"/>
<path fill-rule="evenodd" clip-rule="evenodd" d="M115.123 71.3802C131.495 74.6073 141.806 91.0579 138.106 108.059C135.745 119.158 131.809 115.773 127.716 123.251C123.466 131.122 108.747 136.159 100.64 134.506C84.2681 131.279 74.5867 113.254 78.2074 96.2528C81.9068 79.2513 98.7509 68.153 115.123 71.3802Z" fill="#98EFE4"/>
<path fill-rule="evenodd" clip-rule="evenodd" d="M138.654 68.5449C147.469 71.9295 157.387 84.7594 156.6 108.294C156.285 117.11 151.247 125.453 139.205 127.184C135.112 127.735 131.806 126.791 129.838 126.397C113.23 123.643 100.085 107.743 103.549 91.8433C107.091 75.865 129.917 65.1604 138.654 68.5449Z" fill="#98EFE4"/>
<path d="M136.924 67.1299C148.259 71.2228 156.759 86.965 156.917 102.235C157.153 117.19 150.148 128.76 133.225 127.422C130.942 127.265 128.581 126.714 126.456 125.612" stroke="black" stroke-width="1.35947"/>
<path d="M136.146 101.838C134.415 113.645 131.109 123.799 118.121 131.591C104.032 139.934 85.3778 132.929 79.7106 113.015C75.6176 98.2963 83.2526 84.6793 91.8321 75.1553" stroke="black" stroke-width="1.35947"/>
<path d="M150.148 77.9102C153.926 79.4057 169.275 86.4896 178.169 97.9027" stroke="black" stroke-width="1.35978"/>
<path d="M66.7951 104.673L65.457 103.807L66.4016 102.784L67.4248 101.839L68.5268 100.816L69.6287 99.8715L70.8094 99.0056L71.99 98.1398L73.1707 97.274L74.4301 96.4869L75.6107 95.6998L76.8701 94.9127L78.1295 94.2043L79.3888 93.4959L80.6482 92.7875L81.9076 92.1578L83.167 91.5281L84.4263 90.8984L85.607 90.3475L86.8664 89.8752L88.047 89.3242L89.149 88.8519L90.2509 88.3797L91.3529 87.9861L92.3761 87.5926L93.3994 87.2777L94.3439 86.8842L95.2097 86.5693L95.9968 86.3332L96.7839 86.0971L97.4923 85.8609L98.122 85.6248L98.673 85.4674L99.1453 85.3887L99.6962 86.648L99.224 86.8055L98.7517 86.9629L98.122 87.1203L97.4136 87.3564L96.7052 87.5926L95.8394 87.8287L94.9736 88.1436L94.1078 88.4584L93.0845 88.8519L92.0613 89.2455L91.038 89.6391L89.9361 90.1113L88.8341 90.5049L87.6535 91.0559L86.4728 91.5281L85.2922 92.0791L84.0328 92.7088L82.8521 93.2598L81.5927 93.9682L80.3334 94.5978L79.1527 95.3062L77.8933 96.0146L76.7127 96.723L75.4533 97.5101L74.2726 98.2972L73.092 99.1631L71.99 99.9502L70.8881 100.895L69.7861 101.761L68.7629 102.705L67.7396 103.65L66.7951 104.673Z" fill="black"/>
<path d="M155.423 91.7627C158.807 94.5963 172.503 106.954 178.643 120.728" stroke="black" stroke-width="1.35978"/>
<path d="M152.747 103.807C155.265 106.719 165.104 119.391 166.678 132.772" stroke="black" stroke-width="1.35978"/>
<path d="M95.2926 98.6924C91.9867 100.896 78.842 110.656 73.3323 123.25" stroke="black" stroke-width="1.35978"/>
<path d="M89.0664 114.906C86.7838 118.212 78.1256 132.065 77.6533 145.84" stroke="black" stroke-width="1.35978"/>
<path fill-rule="evenodd" clip-rule="evenodd" d="M103.399 88.7744C103.792 88.7744 104.186 89.0893 104.186 89.5615C104.107 89.9551 103.792 90.3486 103.32 90.3486C102.926 90.3486 102.612 89.9551 102.612 89.5615C102.612 89.0893 103.005 88.7744 103.399 88.7744Z" fill="black"/>
<path fill-rule="evenodd" clip-rule="evenodd" d="M98.9082 96.5664C99.3018 96.5664 99.6953 96.96 99.6166 97.3535C99.6166 97.7471 99.3018 98.1406 98.8295 98.1406C98.4359 98.1406 98.1211 97.7471 98.1211 97.3535C98.1211 96.96 98.4359 96.5664 98.9082 96.5664Z" fill="black"/>
<path fill-rule="evenodd" clip-rule="evenodd" d="M93.7935 109.159C94.187 109.159 94.5806 109.553 94.5019 109.946C94.5019 110.419 94.187 110.733 93.7147 110.733C93.3212 110.733 93.0063 110.419 93.0063 109.946C93.0063 109.553 93.3212 109.159 93.7935 109.159Z" fill="black"/>
<path fill-rule="evenodd" clip-rule="evenodd" d="M146.529 81.8457C147.001 81.8457 147.316 82.1605 147.316 82.6328C147.316 83.0264 146.923 83.4199 146.529 83.4199C146.057 83.4199 145.742 83.0264 145.742 82.6328C145.742 82.1605 146.135 81.8457 146.529 81.8457Z" fill="black"/>
<path fill-rule="evenodd" clip-rule="evenodd" d="M151.568 87.5918C152.04 87.5918 152.355 87.9066 152.355 88.3789C152.355 88.7725 151.961 89.166 151.568 89.166C151.174 89.166 150.781 88.7725 150.781 88.3789C150.859 87.9066 151.174 87.5918 151.568 87.5918Z" fill="black"/>
<path fill-rule="evenodd" clip-rule="evenodd" d="M91.7452 93.0244C92.1388 93.0244 92.4536 93.3393 92.4536 93.8115C92.4536 94.2051 92.1388 94.5986 91.6665 94.5986C91.2729 94.5986 90.8794 94.2051 90.8794 93.8115C90.9581 93.3393 91.2729 93.0244 91.7452 93.0244Z" fill="black"/>
<path fill-rule="evenodd" clip-rule="evenodd" d="M86.8728 99.9482C87.3451 99.9482 87.6599 100.342 87.6599 100.735C87.6599 101.208 87.2664 101.522 86.8728 101.522C86.4005 101.522 86.0857 101.208 86.0857 100.735C86.0857 100.342 86.4792 99.9482 86.8728 99.9482Z" fill="black"/>
<path fill-rule="evenodd" clip-rule="evenodd" d="M129.606 77.9893C127.953 78.3041 118.035 74.4473 117.169 69.8821C115.989 63.3491 133.462 63.8214 134.407 66.2614C136.296 71.2989 132.046 77.4383 129.606 77.9893Z" fill="#98EFE4"/>
<path d="M116.623 69.9601L117.725 69.724L117.803 70.0389L117.961 70.3537L118.118 70.7473L118.354 71.0621L118.59 71.4557L118.826 71.8492L119.22 72.1641L119.535 72.5576L119.928 72.8724L120.401 73.266L120.794 73.5808L121.266 73.8957L121.739 74.2105L122.29 74.5254L122.762 74.8402L123.313 75.0764L123.785 75.3912L124.336 75.6273L124.808 75.8635L125.281 76.0996L125.832 76.3357L126.304 76.4931L126.776 76.6506L127.17 76.808L127.642 76.9654L128.036 77.0441L128.35 77.1228L128.665 77.2015L128.98 77.2803H129.216H129.374H129.531L129.767 78.6183L129.452 78.697H129.216L128.901 78.6183H128.587L128.193 78.5396L127.799 78.3822L127.406 78.3035L126.934 78.1461L126.461 77.9887L125.989 77.8312L125.517 77.5951L124.966 77.4377L124.494 77.2015L123.943 76.9654L123.392 76.6506L122.919 76.4144L122.368 76.0996L121.817 75.7847L121.266 75.4699L120.794 75.1551L120.322 74.7615L119.85 74.4467L119.377 74.0531L118.905 73.6596L118.512 73.266L118.118 72.7937L117.803 72.4002L117.488 71.9279L117.174 71.4557L116.937 70.9834L116.78 70.5111L116.623 69.9601ZM134.883 66.0246L133.939 66.5756H133.86L133.782 66.4182L133.545 66.2607L133.152 66.1033L132.758 65.9459L132.286 65.7885L131.735 65.7098L131.105 65.5523L130.397 65.4736L129.767 65.3949L128.98 65.3162H128.272H127.485H126.698H125.832L125.045 65.3949L124.258 65.4736L123.47 65.5523L122.762 65.7098L121.975 65.8672L121.345 66.1033L120.637 66.3394L120.007 66.5756L119.535 66.8117L118.984 67.1266L118.59 67.4414L118.275 67.835L118.039 68.1498L117.803 68.5434L117.725 68.8582V69.2517V69.724L116.623 69.9601V69.2517V68.5434L116.859 67.9137L117.095 67.284L117.488 66.733L117.961 66.3394L118.433 65.9459L118.984 65.5523L119.614 65.2375L120.322 65.0014L121.03 64.6865L121.739 64.5291L122.526 64.3717L123.313 64.2143L124.1 64.0568L124.966 63.9781L125.753 63.8994H126.619H127.406H128.193L128.98 63.9781H129.767L130.476 64.0568L131.184 64.2143L131.814 64.293L132.443 64.4504L132.994 64.6078L133.467 64.7652L133.939 65.0014L134.332 65.2375L134.647 65.5523L134.883 66.0246ZM129.767 78.6183L129.531 77.2803L129.689 77.2015L129.925 77.1228L130.082 77.0441L130.318 76.8867L130.554 76.7293L130.791 76.5719L131.027 76.3357L131.341 76.0996L131.578 75.7847L131.814 75.5486L132.05 75.2338L132.286 74.9189L132.522 74.5254L132.758 74.2105L132.994 73.817L133.152 73.4234L133.388 73.0299L133.545 72.6363L133.703 72.1641L133.86 71.7705L134.018 71.2982L134.096 70.9047L134.175 70.4324L134.254 70.0389L134.332 69.5666V69.173V68.7008V68.3072L134.254 67.835L134.175 67.4414L134.018 66.9691L133.939 66.5756L134.883 66.0246L135.041 66.5756L135.198 67.0478L135.356 67.5988V68.1498L135.434 68.7008V69.2517V69.8027L135.356 70.275L135.277 70.826L135.12 71.2982L135.041 71.8492L134.883 72.3215L134.726 72.7937L134.49 73.266L134.332 73.7383L134.096 74.2105L133.86 74.6041L133.624 75.0764L133.388 75.4699L133.152 75.8635L132.837 76.1783L132.601 76.5719L132.286 76.8867L132.05 77.2015L131.735 77.4377L131.42 77.6738L131.184 77.9099L130.869 78.1461L130.554 78.3035L130.318 78.4609L130.003 78.5396L129.767 78.6183Z" fill="black"/>
<path fill-rule="evenodd" clip-rule="evenodd" d="M121.974 72.8744C124.492 72.8744 125.752 74.1338 126.381 77.361C126.381 77.5971 126.696 81.7688 127.956 81.2178C129.845 80.2733 123.784 81.6901 121.501 81.6113C118.983 81.5326 117.015 79.4862 117.172 77.1248C117.251 74.6848 119.455 72.7957 121.974 72.8744Z" fill="#98EFE4"/>
<path fill-rule="evenodd" clip-rule="evenodd" d="M135.83 71.535C137.168 71.9286 139.214 73.5815 139.057 76.0215C138.899 78.4616 137.325 80.3506 135.357 80.3506C134.334 80.2719 133.704 81.1377 133.075 80.2719C132.603 79.4848 132.681 76.0215 132.445 74.9196C131.737 71.4563 134.492 71.1415 135.83 71.535Z" fill="#98EFE4"/>
<path d="M141.02 127.265C138.108 135.687 130.631 141.433 123.232 142.141" stroke="black" stroke-width="1.39417"/>
<path fill-rule="evenodd" clip-rule="evenodd" d="M140.943 127.579C142.36 128.602 137.794 140.409 137.243 139.386C136.85 138.599 135.905 136.473 135.276 135.922C135.827 134.742 138.109 135.765 140.156 129.862C140.234 129.547 141.258 127.815 140.943 127.579Z" fill="black"/>
<path fill-rule="evenodd" clip-rule="evenodd" d="M216.762 1.86204C243.69 -1.96274 270.624 14.8037 272.657 35.928C276.147 72.1991 240.484 89.0409 210.402 83.4062C202.813 83.3088 197.827 88.8257 190.657 89.8271C185.833 90.4901 183.503 88.6969 184.004 88.5059C187.079 87.333 188.51 85.3951 189.358 83.0492C192.167 74.9407 182.785 69.28 178.703 62.2934C176.477 58.4687 174.94 54.2869 174.251 49.7482C170.805 27.1055 189.835 5.68681 216.762 1.86204Z" fill="#F7F7F7" stroke="black" stroke-width="1.36109"/>
<path d="M212.039 40.5127H203.609V27.3938H205.479V38.6422H212.039V40.5127ZM219.483 40.5127H214.794V39.5775H213.859V38.6422H212.923V33.018H213.859V32.0828H214.794V31.1475H219.483V32.0828H220.418V33.018H221.353V36.2977H214.794V37.707H215.729V38.6422H218.541V37.707H221.353V38.6422H220.418V39.5775H219.483V40.5127ZM214.794 34.8949H219.483V33.9532H218.541V33.018H215.729V33.9532H214.794V34.8949ZM226.92 40.5127H224.108V39.5775H223.173V32.5504H221.77V31.1475H223.173V28.3354H225.05V31.1475H226.92V32.5504H225.05V38.6422H226.92V40.5127ZM229.682 30.2059H228.747V29.2707H227.811V27.3938H229.682V30.2059ZM228.747 31.1475H227.811V30.2059H228.747V31.1475ZM236.639 40.5127H231.95V39.5775H231.015V38.6422H230.079V37.707H232.885V38.6422H236.165V36.7653H232.885V35.8301H231.015V34.8949H230.079V33.018H231.015V32.0828H231.95V31.1475H236.639V32.0828H237.574V33.018H238.509V33.9532H235.697V33.018H232.418V34.8949H235.697V35.8301H237.574V36.7653H238.509V38.6422H237.574V39.5775H236.639V40.5127ZM198.939 56.5127H193.315V55.5775H192.379V54.6422H191.444V53.707H190.509V46.2059H191.444V45.2707H192.379V44.3354H193.315V43.3938H198.939V44.3354H199.874V45.2707H200.816V46.2059H201.751V48.0828H199.874V47.1475H198.939V46.2059H198.004V45.2707H194.256V46.2059H193.315V47.1475H192.379V52.7653H193.315V53.707H194.256V54.6422H198.004V53.707H198.939V52.7653H199.874V51.8301H201.751V53.707H200.816V54.6422H199.874V55.5775H198.939V56.5127ZM209.663 56.5127H204.974V55.5775H204.038V54.6422H203.103V49.018H204.038V48.0828H204.974V47.1475H209.663V48.0828H210.598V49.018H211.533V54.6422H210.598V55.5775H209.663V56.5127ZM205.909 54.6422H208.721V53.707H209.663V49.9532H208.721V49.018H205.909V49.9532H204.974V53.707H205.909V54.6422ZM214.749 56.5127H212.879V47.1475H214.749V48.0828H215.684V47.1475H218.964V48.0828H219.906V49.018H220.841V56.5127H218.964V49.9532H218.029V49.018H215.684V49.9532H214.749V56.5127ZM224.064 56.5127H222.193V47.1475H224.064V48.0828H224.999V47.1475H228.279V48.0828H229.22V49.018H230.156V56.5127H228.279V49.9532H227.343V49.018H224.999V49.9532H224.064V56.5127ZM238.067 56.5127H233.378V55.5775H232.443V54.6422H231.508V49.018H232.443V48.0828H233.378V47.1475H238.067V48.0828H239.002V49.018H239.938V52.2977H233.378V53.707H234.313V54.6422H237.125V53.707H239.938V54.6422H239.002V55.5775H238.067V56.5127ZM233.378 50.8949H238.067V49.9532H237.125V49.018H234.313V49.9532H233.378V50.8949ZM247.843 56.5127H243.154V55.5775H242.219V54.6422H241.283V49.018H242.219V48.0828H243.154V47.1475H247.843V48.0828H248.778V49.018H249.713V50.8949H247.843V49.9532H246.901V49.018H244.089V49.9532H243.154V53.707H244.089V54.6422H246.901V53.707H247.843V52.7653H249.713V54.6422H248.778V55.5775H247.843V56.5127ZM255.28 56.5127H252.468V55.5775H251.533V48.5504H250.13V47.1475H251.533V44.3354H253.41V47.1475H255.28V48.5504H253.41V54.6422H255.28V56.5127Z" fill="#0C0F1D"/>
</svg>
