<svg width="116" height="173" viewBox="0 0 116 173" fill="none" xmlns="http://www.w3.org/2000/svg">
<path fill-rule="evenodd" clip-rule="evenodd" d="M3.2304 96.6421C6.70609 84.5893 22.7952 34.1357 26.6633 25.4465C31.4283 14.7952 39.2206 2.23788 57.7202 2.57424C76.2199 2.23788 84.0682 14.7952 88.7772 25.4465C92.7014 34.1357 108.734 84.5893 112.266 96.6421C134.634 172.659 -19.1373 172.659 3.2304 96.6421Z" fill="#98EFE4" stroke="black" stroke-width="1.65919"/>
<path fill-rule="evenodd" clip-rule="evenodd" d="M89.2818 24.9981C89.1136 24.5496 88.9454 24.2133 88.7773 23.8769C84.0683 13.2256 76.2199 0.724332 57.7203 1.00463C39.2207 0.724332 31.4284 13.2256 26.6633 23.8769C26.5512 24.2133 26.383 24.5496 26.2148 24.9981C33.6708 20.7376 43.7054 17.8225 57.7203 17.9346C71.7352 17.8225 81.7698 20.7376 89.2818 24.9981Z" fill="#E9CCFF" stroke="black" stroke-width="1.65919"/>
<path fill-rule="evenodd" clip-rule="evenodd" d="M57.9445 8.23625C57.7203 8.23625 57.496 8.23625 57.2718 8.23625C44.5463 8.06807 32.7177 10.3105 26.9436 17.0376C24.0285 20.4572 22.571 24.8299 21.1695 28.9222C20.6649 30.4919 21.2255 33.1827 22.8513 34.2479C31.4284 29.3707 41.6873 25.7268 57.7203 25.895H57.9445V8.23625Z" fill="#E9CCFF" stroke="black" stroke-width="1.65919"/>
<path fill-rule="evenodd" clip-rule="evenodd" d="M57.7754 8.23625C57.9996 8.23625 58.2239 8.23625 58.4481 8.23625C71.1736 8.06807 83.0022 10.3105 88.7763 17.0376C91.6914 20.4572 93.205 24.8299 94.5504 28.9222C95.111 30.4919 94.4944 33.1827 92.8686 34.2479C84.2915 29.3707 74.0326 25.7268 57.9996 25.895H57.7754V8.23625Z" fill="#E9CCFF" stroke="black" stroke-width="1.65919"/>
<path fill-rule="evenodd" clip-rule="evenodd" d="M29.5215 34.9207H52.6741C54.6922 34.9207 56.374 36.4903 56.5422 38.5085C56.7664 38.7888 57.1028 39.1812 58.1118 39.1812C58.8967 39.2372 59.3451 38.8448 59.6254 38.5085C59.7376 36.4903 61.4754 34.9207 63.4935 34.9207H86.6461C88.7764 34.9207 89.8415 36.7146 90.5142 38.7888L92.9809 46.4129C92.9809 46.4129 90.1218 51.29 89.5052 51.9627C88.8325 52.8036 87.7673 53.3642 86.6461 53.1961L63.4935 49.8885C61.4193 49.5522 59.6254 48.1507 59.6254 46.0204V43.6099H56.5422V46.0204C56.5422 48.1507 54.8043 49.5522 52.6741 49.8885L29.5215 53.1961C28.2321 53.3642 27.1109 52.6915 26.4382 51.6824C25.9337 51.0097 22.7383 46.4129 22.7383 46.4129L25.6534 38.7888C26.4382 36.7706 27.3912 34.9207 29.5215 34.9207Z" fill="black" stroke="black" stroke-width="1.65919"/>
<path fill-rule="evenodd" clip-rule="evenodd" d="M24.59 31.2766H47.7987C49.9289 31.2766 51.6107 33.0145 51.6107 35.1447V45.74C51.6107 47.8142 49.9289 49.552 47.7987 49.552H28.6263C28.2899 49.552 23.1885 46.6369 22.7401 46.4127C22.2916 46.1884 22.6279 39.2931 22.2355 39.181C21.2825 38.9007 19.4886 46.0203 19.6007 45.1794L20.778 35.1447C21.0022 33.0705 22.4598 31.2766 24.59 31.2766Z" fill="#E9CCFF" stroke="black" stroke-width="1.65919"/>
<path fill-rule="evenodd" clip-rule="evenodd" d="M91.132 31.2766H67.9234C65.7931 31.2766 64.1113 33.0145 64.1113 35.1447V45.74C64.1113 47.8142 65.7931 49.552 67.9234 49.552H87.5442C87.8806 49.552 92.5335 46.6369 92.982 46.4127C93.4305 46.1884 93.0941 39.2931 93.4865 39.181C94.4956 38.9007 96.0092 46.0203 95.9531 45.1794L95.0001 35.1447C94.7759 33.0705 93.2623 31.2766 91.132 31.2766Z" fill="#E9CCFF" stroke="black" stroke-width="1.65919"/>
<path fill-rule="evenodd" clip-rule="evenodd" d="M29.5224 31.2766H52.675C54.6931 31.2766 56.3749 32.9023 56.5431 34.8644C56.7673 35.2008 57.1037 35.5932 58.1128 35.5932C58.8976 35.5932 59.3461 35.2568 59.6264 34.9205C59.7385 32.9023 61.4763 31.2766 63.4945 31.2766H86.647C88.7773 31.2766 90.5151 33.0145 90.5151 35.1447V45.74C90.5151 47.8142 88.7773 49.552 86.647 49.552H63.4945C61.3642 49.552 59.6264 47.8142 59.6264 45.74V43.3294H56.5431V45.74C56.5431 47.8142 54.8052 49.552 52.675 49.552H29.5224C27.3921 49.552 25.6543 47.8142 25.6543 45.74V35.1447C25.6543 33.0145 27.3921 31.2766 29.5224 31.2766Z" fill="#E9CCFF" stroke="black" stroke-width="1.65919"/>
<path fill-rule="evenodd" clip-rule="evenodd" d="M29.579 33.8555H52.6195C53.2922 33.8555 53.8528 34.4161 53.8528 35.0888V45.8522C53.8528 46.5249 53.2922 47.0855 52.6195 47.0855H29.579C28.9063 47.0855 28.3457 46.5249 28.3457 45.8522V35.0888C28.3457 34.4161 28.9063 33.8555 29.579 33.8555Z" fill="black" stroke="black" stroke-width="1.65919"/>
<path fill-rule="evenodd" clip-rule="evenodd" d="M86.5902 33.8555H63.5497C62.877 33.8555 62.3164 34.4161 62.3164 35.0888V45.8522C62.3164 46.5249 62.877 47.0855 63.5497 47.0855H86.5902C87.319 47.0855 87.8235 46.5249 87.8235 45.8522V35.0888C87.8235 34.4161 87.319 33.8555 86.5902 33.8555Z" fill="black" stroke="black" stroke-width="1.65919"/>
<path fill-rule="evenodd" clip-rule="evenodd" d="M48.8073 54.6535C40.3423 56.4474 28.4577 68.5002 25.8229 75.6197C24.7578 78.4788 24.029 81.1136 23.5805 83.5802C18.9276 109.872 47.7422 113.124 57.6647 103.425C67.6433 113.124 96.4018 109.872 91.805 83.5802C91.3565 81.1136 90.6277 78.4788 89.5626 75.6197C86.9278 68.5002 75.0432 56.4474 66.5782 54.6535C61.0283 53.1959 54.133 53.1959 48.8073 54.6535Z" fill="black" stroke="black" stroke-width="1.65919"/>
<path fill-rule="evenodd" clip-rule="evenodd" d="M57.1605 93.1665C68.2603 93.1665 77.2859 99.5012 77.2859 107.237C77.2859 115.03 68.2603 121.308 57.1605 121.308C46.0047 121.308 37.0352 115.03 37.0352 107.237C37.0352 99.5012 46.0047 93.1665 57.1605 93.1665Z" fill="black" stroke="black" stroke-width="1.65919"/>
<path fill-rule="evenodd" clip-rule="evenodd" d="M57.889 89.2983C69.0449 89.2983 78.0144 95.6331 78.0144 103.369C78.0144 111.162 69.0449 117.44 57.889 117.44C46.7893 117.44 37.7637 111.162 37.7637 103.369C37.7637 95.6331 46.7893 89.2983 57.889 89.2983Z" fill="#98EFE4" stroke="black" stroke-width="1.65919"/>
<path fill-rule="evenodd" clip-rule="evenodd" d="M50.2643 61.4367C43.1447 62.8382 33.2222 72.8168 31.0359 78.647C30.1389 81.0015 29.5222 83.1878 29.1298 85.262C25.2617 106.901 49.3673 109.592 57.6641 101.575C66.017 109.592 90.0665 106.901 86.1984 85.262C85.8621 83.1878 85.2454 81.0015 84.3484 78.647C82.1621 72.8168 72.2396 62.8382 65.12 61.4367C60.4671 60.2034 54.693 60.2034 50.2643 61.4367Z" fill="black" stroke="black" stroke-width="1.65919"/>
<path fill-rule="evenodd" clip-rule="evenodd" d="M48.5834 47.4777C39.7259 49.2716 27.3929 61.6608 24.6459 68.8925C23.5808 71.8636 22.796 74.6105 22.3475 77.1332C17.5264 104.042 47.4622 107.349 57.8332 97.4268C68.1481 107.349 98.0839 104.042 93.2628 77.1332C92.8143 74.6105 92.0855 71.8636 90.9643 68.8925C88.2174 61.6608 75.8843 49.2716 67.0269 47.4777C61.2528 45.9641 54.0772 45.9641 48.5834 47.4777Z" fill="#98EFE4" stroke="black" stroke-width="1.65919"/>
<path d="M33.6701 65.3608C24.4763 66.8184 17.6371 68.5002 11.0781 71.9759" stroke="black" stroke-width="1.65919"/>
<path d="M81.8828 65.3608C91.0766 66.8184 97.9158 68.5002 104.531 71.9759" stroke="black" stroke-width="1.65919"/>
<path d="M32.1572 77.0774C28.3452 77.8622 17.5257 80.0485 7.37891 88.8499" stroke="black" stroke-width="1.65919"/>
<path d="M83.4512 77.0774C87.2632 77.8622 98.0266 80.0485 108.173 88.8499" stroke="black" stroke-width="1.65919"/>
<path d="M30.3636 87.4482C26.8879 89.5224 18.7593 99.5571 15.3957 107.461C15.2276 107.91 15.2836 108.134 14.9473 108.414" stroke="black" stroke-width="1.65919"/>
<path d="M85.1895 87.4482C88.6651 89.5224 96.7938 99.5571 100.157 107.461C100.382 107.91 100.269 108.134 100.662 108.414" stroke="black" stroke-width="1.65919"/>
<path fill-rule="evenodd" clip-rule="evenodd" d="M67.1953 104.939C69.2695 104.322 71.4558 112.731 67.1392 115.927C67.0831 115.983 63.6635 118.898 65.7938 120.411C68.1483 122.093 69.9422 128.428 70.1664 133.641C70.5588 142.331 68.4286 151.412 67.0831 153.374C67.7559 153.318 73.0255 152.421 73.0255 152.197C72.9694 151.917 74.9875 138.855 74.9875 135.716C74.9315 126.97 75.436 118.001 75.436 109.143C75.436 105.163 74.3148 105.163 70.1104 104.883C69.7179 104.827 67.7559 104.715 67.4756 104.827L67.1953 104.939Z" fill="black"/>
<path fill-rule="evenodd" clip-rule="evenodd" d="M48.2466 104.939C46.1724 104.322 44.0421 112.731 48.3587 115.927C48.4148 115.983 51.7784 118.898 49.7042 120.411C47.3497 122.093 45.4997 128.428 45.2755 133.641C44.883 142.331 47.0133 151.412 48.4148 153.374C47.686 153.318 42.4164 152.421 42.4725 152.197C42.4725 151.917 40.4543 138.855 40.4543 135.716C40.5104 126.97 40.0059 118.001 40.0059 109.143C40.0059 105.163 41.127 105.163 45.3315 104.883C45.78 104.827 47.7421 104.715 47.9663 104.827L48.2466 104.939Z" fill="black"/>
<path fill-rule="evenodd" clip-rule="evenodd" d="M50.882 52.243C52.1713 52.7475 54.694 54.9339 57.3849 55.102C57.497 55.102 57.6091 55.102 57.6652 55.102C57.7773 55.102 57.8894 55.102 57.9455 55.102C60.7484 54.9339 63.3272 52.7475 64.6726 52.243C64.5605 51.9627 63.3832 50.5052 62.9348 49.44C62.206 47.9264 64.7287 47.2537 66.1862 47.4219C69.5498 47.7582 63.4954 43.778 57.6652 43.8341C51.3304 43.778 46.3411 47.8143 49.3123 47.4219C50.7138 47.1977 53.2925 47.9264 52.5638 49.44C52.1153 50.5052 50.9941 51.9627 50.882 52.243Z" fill="#98EFE4" stroke="black" stroke-width="1.65919" stroke-linecap="round" stroke-linejoin="round"/>
<path fill-rule="evenodd" clip-rule="evenodd" d="M44.659 102.584C42.4167 102.865 39.3895 102.641 36.6425 101.968C32.4941 100.847 29.579 98.9406 29.579 98.6042C27.7291 113.516 28.0654 134.202 31.7093 149.45C32.382 152.365 34.4562 172.603 40.6788 171.986C43.706 171.65 42.8091 157.186 42.8091 140.537C42.8091 125.12 43.706 107.854 44.659 102.584Z" fill="#F7F7F7" stroke="black" stroke-width="1.65919"/>
<path fill-rule="evenodd" clip-rule="evenodd" d="M70.8945 102.584C73.1369 102.865 76.2202 102.641 78.9671 101.968C83.0594 100.847 86.0306 98.9406 85.9745 98.6042C87.8806 113.516 87.4881 134.202 83.9003 149.45C83.2276 152.365 81.1534 172.603 74.9308 171.986C71.8475 171.65 72.7445 157.186 72.8006 140.537C72.8006 125.12 71.8475 107.854 70.8945 102.584Z" fill="#F7F7F7" stroke="black" stroke-width="1.65919"/>
<path d="M37.4265 35.033L29.5781 42.9374" stroke="white" stroke-width="1.65919"/>
<path d="M85.4139 35.033L74.0898 46.5252" stroke="white" stroke-width="1.65919"/>
<path d="M43.0322 35.2009L32.3809 45.9083" stroke="white" stroke-width="1.65919"/>
<path d="M75.8837 35.2009L65.2324 45.9083" stroke="white" stroke-width="1.65919"/>
<path d="M57.832 97.4268V84.0286" stroke="black" stroke-width="1.65919"/>
<path fill-rule="evenodd" clip-rule="evenodd" d="M35.3536 61.9976C35.6339 61.9976 35.9142 62.2218 35.9142 62.5021C35.9142 62.8385 35.6339 63.0627 35.3536 63.0627C35.0172 63.0627 34.793 62.8385 34.793 62.5021C34.793 62.2218 35.0172 61.9976 35.3536 61.9976Z" fill="black"/>
<path fill-rule="evenodd" clip-rule="evenodd" d="M42.5293 65.8096C42.8096 65.8096 43.0339 66.0899 43.0339 66.3702C43.0339 66.7065 42.8096 66.9308 42.5293 66.9308C42.193 66.9308 41.9688 66.7065 41.9688 66.3702C41.9688 66.0899 42.193 65.8096 42.5293 65.8096Z" fill="black"/>
<path fill-rule="evenodd" clip-rule="evenodd" d="M32.0469 71.3591C32.3272 71.3591 32.5515 71.5834 32.5515 71.9197C32.5515 72.2 32.3272 72.4803 32.0469 72.4803C31.7106 72.4803 31.4863 72.2 31.4863 71.9197C31.4863 71.5834 31.7106 71.3591 32.0469 71.3591Z" fill="black"/>
<path fill-rule="evenodd" clip-rule="evenodd" d="M35.3536 78.5349C35.6339 78.5349 35.9142 78.7592 35.9142 79.0955C35.9142 79.3758 35.6339 79.6561 35.3536 79.6561C35.0172 79.6561 34.793 79.3758 34.793 79.0955C34.793 78.7592 35.0172 78.5349 35.3536 78.5349Z" fill="black"/>
<path fill-rule="evenodd" clip-rule="evenodd" d="M27.6172 81.8423C27.8975 81.8423 28.1778 82.0665 28.1778 82.4029C28.1778 82.6832 27.8975 82.9635 27.6172 82.9635C27.2809 82.9635 27.0566 82.6832 27.0566 82.4029C27.0566 82.0665 27.2809 81.8423 27.6172 81.8423Z" fill="black"/>
<path fill-rule="evenodd" clip-rule="evenodd" d="M80.5918 61.9976C80.2555 61.9976 80.0312 62.2218 80.0312 62.5021C80.0312 62.8385 80.2555 63.0627 80.5918 63.0627C80.8721 63.0627 81.1524 62.8385 81.1524 62.5021C81.1524 62.2218 80.8721 61.9976 80.5918 61.9976Z" fill="black"/>
<path fill-rule="evenodd" clip-rule="evenodd" d="M73.4161 65.8096C73.0797 65.8096 72.8555 66.0899 72.8555 66.3702C72.8555 66.7065 73.0797 66.9308 73.4161 66.9308C73.6964 66.9308 73.9767 66.7065 73.9767 66.3702C73.9767 66.0899 73.6964 65.8096 73.4161 65.8096Z" fill="black"/>
<path fill-rule="evenodd" clip-rule="evenodd" d="M83.8985 71.3591C83.5621 71.3591 83.3379 71.5834 83.3379 71.9197C83.3379 72.2 83.5621 72.4803 83.8985 72.4803C84.1788 72.4803 84.4591 72.2 84.4591 71.9197C84.4591 71.5834 84.1788 71.3591 83.8985 71.3591Z" fill="black"/>
<path fill-rule="evenodd" clip-rule="evenodd" d="M80.5918 78.5349C80.2555 78.5349 80.0312 78.7592 80.0312 79.0955C80.0312 79.3758 80.2555 79.6561 80.5918 79.6561C80.8721 79.6561 81.1524 79.3758 81.1524 79.0955C81.1524 78.7592 80.8721 78.5349 80.5918 78.5349Z" fill="black"/>
<path fill-rule="evenodd" clip-rule="evenodd" d="M88.3282 81.8423C87.9918 81.8423 87.7676 82.0665 87.7676 82.4029C87.7676 82.6832 87.9918 82.9635 88.3282 82.9635C88.6085 82.9635 88.8327 82.6832 88.8327 82.4029C88.8327 82.0665 88.6085 81.8423 88.3282 81.8423Z" fill="black"/>
</svg>
